<?xml version="1.0" standalone="no"?>
<!DOCTYPE svg PUBLIC "-//W3C//DTD SVG 20010904//EN"
 "http://www.w3.org/TR/2001/REC-SVG-20010904/DTD/svg10.dtd">
<svg version="1.0" xmlns="http://www.w3.org/2000/svg"
 width="635.000000pt" height="618.000000pt" viewBox="0 0 635.000000 618.000000"
 preserveAspectRatio="xMidYMid meet">
<metadata>
Created by potrace 1.16, written by Peter Selinger 2001-2019
</metadata>
<g transform="translate(0.000000,618.000000) scale(0.100000,-0.100000)"
fill="#000000" stroke="none">
<path d="M1225 5768 c-231 -10 -385 -67 -539 -199 -139 -118 -223 -249 -268
-419 l-23 -85 -3 -1870 c-2 -1312 0 -1895 8 -1954 35 -268 169 -490 377 -625
82 -53 123 -71 228 -99 80 -21 83 -21 1488 -24 1404 -4 1409 -4 1442 17 87 54
80 190 -12 236 -37 18 -92 19 -1413 24 -1303 5 -1378 6 -1430 24 -207 69 -346
219 -400 432 -20 75 -20 119 -20 1939 0 1811 1 1864 19 1938 26 100 43 130
114 204 111 116 221 164 418 183 79 8 691 10 1989 8 1755 -3 1879 -4 1935 -21
112 -33 185 -76 266 -156 76 -75 110 -130 153 -241 21 -55 21 -64 26 -1212 l5
-1157 29 -30 c58 -61 156 -51 204 21 l27 42 0 1160 0 1161 -23 85 c-70 264
-236 459 -475 558 -157 66 -41 62 -2107 65 -1031 1 -1938 -1 -2015 -5z"/>
<path d="M3000 5194 c-222 -43 -415 -190 -511 -387 -54 -112 -73 -206 -66
-331 9 -175 73 -315 204 -443 l73 -72 -97 -46 c-147 -69 -278 -161 -372 -261
l-82 -87 -72 22 c-145 43 -292 37 -448 -18 -111 -39 -180 -85 -269 -177 -124
-130 -180 -265 -180 -440 0 -179 63 -342 182 -469 37 -40 68 -76 68 -79 0 -3
-33 -21 -72 -40 -171 -81 -319 -208 -418 -357 -105 -159 -140 -306 -141 -585
0 -94 5 -182 10 -196 14 -36 58 -68 95 -68 46 0 78 20 103 65 21 37 23 52 23
221 0 203 14 284 69 393 64 126 222 261 385 327 150 61 194 69 381 69 146 0
182 -3 255 -23 277 -76 505 -291 590 -557 19 -59 23 -100 28 -253 4 -172 6
-185 27 -210 18 -21 33 -26 82 -30 53 -4 63 -1 89 21 l29 25 -1 189 c0 158 -4
202 -23 277 -24 99 -88 243 -148 333 -91 137 -253 278 -415 359 l-88 44 62 59
c118 110 186 265 195 446 6 127 -13 222 -67 331 -22 45 -60 104 -85 132 -55
61 -55 61 42 153 157 147 335 228 574 260 217 28 462 -31 650 -157 66 -45 199
-175 199 -196 0 -5 -25 -38 -55 -73 -98 -117 -145 -246 -145 -404 1 -196 68
-355 218 -513 l35 -36 -94 -47 c-118 -59 -199 -116 -269 -191 -138 -146 -232
-322 -276 -514 -17 -72 -31 -377 -20 -434 9 -45 43 -70 97 -68 51 2 95 25 113
60 9 18 16 82 21 187 4 88 13 194 21 235 20 107 87 237 168 327 115 125 224
196 381 246 96 31 120 34 296 47 212 14 343 72 485 214 132 131 194 284 194
476 0 183 -62 333 -195 466 -173 174 -400 234 -662 174 l-101 -23 -104 105
c-118 121 -187 170 -339 242 l-109 52 59 52 c68 59 150 176 179 255 44 117 50
265 15 402 -52 209 -256 423 -466 491 -81 25 -242 40 -307 28z m290 -275 c198
-94 296 -267 270 -475 -31 -245 -266 -413 -524 -376 -190 28 -320 149 -371
347 -38 148 5 296 119 411 103 103 184 135 331 131 91 -2 107 -5 175 -38z
m-1327 -1534 c144 -37 263 -131 320 -252 43 -92 50 -218 18 -320 -39 -129
-165 -259 -284 -295 -24 -7 -93 -13 -158 -13 -113 0 -117 1 -191 37 -120 60
-210 169 -242 293 -43 163 7 323 140 444 112 103 259 142 397 106z m2486 0
c86 -21 148 -56 216 -124 111 -111 157 -261 125 -411 -38 -179 -212 -334 -391
-347 -229 -17 -417 105 -489 318 -50 148 -4 328 114 444 115 112 271 156 425
120z"/>
<path d="M5441 2430 c-160 -33 -278 -170 -289 -335 -4 -63 -8 -77 -27 -89 -28
-19 -526 -296 -584 -325 l-42 -22 -36 31 c-115 102 -332 107 -459 12 -164
-124 -192 -357 -64 -535 64 -89 167 -139 291 -139 93 -1 163 21 227 70 l46 35
61 -33 c33 -19 175 -96 315 -171 l255 -138 12 -79 c15 -104 40 -160 104 -227
86 -91 204 -132 326 -113 111 17 218 102 271 216 23 49 27 70 27 152 0 82 -4
103 -27 152 -37 79 -98 142 -177 181 -59 29 -74 32 -156 32 -81 0 -96 -3 -155
-32 -36 -18 -77 -42 -91 -54 l-27 -21 -198 108 c-110 59 -253 137 -319 174
l-120 65 -3 55 -2 55 127 69 c71 38 214 118 319 177 105 60 194 109 198 109 3
0 29 -18 58 -40 66 -50 130 -70 224 -70 142 0 253 70 316 198 31 62 33 74 33
167 0 93 -2 105 -33 167 -18 36 -51 82 -73 103 -85 77 -222 116 -328 95z"/>
</g>
</svg>
