<?xml version="1.0" encoding="UTF-8" standalone="no"?>
<!-- Created with Inkscape (http://www.inkscape.org/) -->

<svg
   width="210mm"
   height="297mm"
   viewBox="0 0 210 297"
   version="1.1"
   id="svg5"
   inkscape:version="1.1.2 (0a00cf5339, 2022-02-04)"
   sodipodi:docname="logo2.svg"
   xmlns:inkscape="http://www.inkscape.org/namespaces/inkscape"
   xmlns:sodipodi="http://sodipodi.sourceforge.net/DTD/sodipodi-0.dtd"
   xmlns="http://www.w3.org/2000/svg"
   xmlns:svg="http://www.w3.org/2000/svg">
  <sodipodi:namedview
     id="namedview7"
     pagecolor="#ffffff"
     bordercolor="#666666"
     borderopacity="1.0"
     inkscape:pageshadow="2"
     inkscape:pageopacity="0.0"
     inkscape:pagecheckerboard="0"
     inkscape:document-units="mm"
     showgrid="false"
     inkscape:zoom="0.64052329"
     inkscape:cx="224.03557"
     inkscape:cy="561.25984"
     inkscape:window-width="1920"
     inkscape:window-height="1020"
     inkscape:window-x="0"
     inkscape:window-y="0"
     inkscape:window-maximized="1"
     inkscape:current-layer="g832" />
  <defs
     id="defs2" />
  <g
     inkscape:label="Layer 1"
     inkscape:groupmode="layer"
     id="layer1">
    <g
       transform="matrix(0.03527778,0,0,-0.03527778,28.675642,228.93269)"
       fill="#000000"
       stroke="none"
       id="g832">
      <path
         d="m 1653.9837,5117.791 c -222,-43 -415,-190 -511,-387 -54,-112 -73,-206 -66,-331 9,-175 73,-315 204,-443 l 73,-72 -97,-46 c -147,-69 -278.00001,-161 -372.00001,-261 l -82,-87 -72,22 c -145,43 -292,37 -448,-18 -111,-39 -180,-85 -268.999998,-177 -124.000002,-130 -180.000002,-265 -180.000002,-440 0,-179 63,-342 182.000002,-469 37,-40 68,-76 68,-79 0,-3 -33,-21 -72,-40 -171.000002,-81 -319.000002,-208 -418.000002,-357 -105,-159 -140,-306 -141,-585 0,-94 5,-182 10,-196 14,-36 58,-68 95,-68 46,0 78,20 103,65 21,37 23,52 23,221 0,203 14,284 69,393 64,126 222.000002,261 385,327 150,61 194,69 381,69 146,0 182,-3 255,-23 277.00001,-76 505.00001,-291 590.00001,-557 19,-59 23,-100 28,-253 4,-172 6,-185 27,-210 18,-21 33,-26 82,-30 53,-4 63,-1 89,21 l 29,25 -1,189 c 0,158 -4,202 -23,277 -24,99 -88,243 -148,333 -91,137 -253,278 -415,359 l -88.00001,44 62.00001,59 c 118,110 186,265 195,446 6,127 -13,222 -67,331 -22,45 -60,104 -85,132 -55.00001,61 -55.00001,61 42,153 157,147 335,228 574,260 217,28 462,-31 650,-157 66,-45 199,-175 199,-196 0,-5 -25,-38 -55,-73 -98,-117 -145,-246 -145,-404 1,-196 68,-355 218,-513 l 35,-36 -94,-47 c -118,-59 -199,-116 -269,-191 -138,-146 -232,-322 -276,-514 -17,-72 -31,-377 -20,-434 9,-45 43,-70 97,-68 51,2 95,25 113,60 9,18 16,82 21,187 4,88 13,194 21,235 20,107 87,237 168,327 115,125 224,196 381,246 96,31 120,34 296,47 212,14 343,72 485,214 132,131 194,284 194,476 0,183 -62,333 -195,466 -173,174 -400,234 -662,174 l -101,-23 -104,105 c -118,121 -187,170 -339,242 l -109,52 59,52 c 68,59 150,176 179,255 44,117 50,265 15,402 -52,209 -256,423 -466,491 -81,25 -242,40 -307,28 z m 290,-275 c 198,-94 296,-267 270,-475 -31,-245 -266,-413 -524,-376 -190,28 -320,149 -371,347 -38,148 5,296 119,411 103,103 184,135 331,131 91,-2 107,-5 175,-38 z m -1327.00001,-1534 c 144,-37 263,-131 320,-252 43,-92 50,-218 18,-320 -39,-129 -165,-259 -284,-295 -24,-7 -93,-13 -158,-13 -113,0 -117,1 -191,37 -120,60 -210,169 -241.999998,293 -43,163 7,323 139.999998,444 112,103 259,142 397,106 z m 2486.00001,0 c 86,-21 148,-56 216,-124 111,-111 157,-261 125,-411 -38,-179 -212,-334 -391,-347 -229,-17 -417,105 -489,318 -50,148 -4,328 114,444 115,112 271,156 425,120 z"
         id="path828" />
      <path
         d="m 4094.9837,2353.791 c -160,-33 -278,-170 -289,-335 -4,-63 -8,-77 -27,-89 -28,-19 -526,-296 -584,-325 l -42,-22 -36,31 c -115,102 -332,107 -459,12 -164,-124 -192,-357 -64,-535 64,-89 167,-138.99998 291,-138.99998 93,-1 163,21 227,69.99998 l 46,35 61,-33 c 33,-19 175,-95.99998 315,-170.99998 l 255,-138 12,-79 c 15,-104 40,-160 104,-227 86,-91 204,-132 326,-113 111,17 218,102 271,216 23,49 27,70 27,152 0,82 -4,103 -27,152 -37,79 -98,142 -177,181 -59,28.99998 -74,31.99998 -156,31.99998 -81,0 -96,-3 -155,-31.99998 -36,-18 -77,-42 -91,-54 l -27,-21 -198,107.99998 c -110,59 -253,137 -319,174 l -120,65 -3,55 -2,55 127,69 c 71,38 214,118 319,177 105,60 194,109 198,109 3,0 29,-18 58,-40 66,-50 130,-70 224,-70 142,0 253,70 316,198 31,62 33,74 33,167 0,93 -2,105 -33,167 -18,36 -51,82 -73,103 -85,77 -222,116 -328,95 z"
         id="path830" />
    </g>
  </g>
</svg>
